<mxfile host="app.diagrams.net" agent="Mozilla/5.0 (Macintosh; Intel Mac OS X 10_15_7) AppleWebKit/537.36 (KHTML, like Gecko) Chrome/128.0.0.0 Safari/537.36" version="24.7.8">
  <diagram id="prtHgNgQTEPvFCAcTncT" name="Page-1">
    <mxGraphModel dx="679" dy="1202" grid="1" gridSize="10" guides="1" tooltips="1" connect="1" arrows="1" fold="1" page="1" pageScale="1" pageWidth="1169" pageHeight="827" math="0" shadow="0">
      <root>
        <mxCell id="0" />
        <mxCell id="1" parent="0" />
        <mxCell id="dNxyNK7c78bLwvsdeMH5-11" value="Horizontal Layer" style="swimlane;html=1;startSize=20;horizontal=1;containerType=tree;glass=0;" parent="1" vertex="1">
          <mxGeometry x="40" y="80" width="680" height="260" as="geometry">
            <mxRectangle x="40" y="80" width="90" height="30" as="alternateBounds" />
          </mxGeometry>
        </mxCell>
        <mxCell id="S6ZYbawEhijRoYvT3STJ-4" value="Web Client" style="rounded=1;whiteSpace=wrap;html=1;" parent="dNxyNK7c78bLwvsdeMH5-11" vertex="1">
          <mxGeometry x="40" y="50" width="120" height="60" as="geometry" />
        </mxCell>
        <mxCell id="S6ZYbawEhijRoYvT3STJ-5" value="Service" style="rounded=1;whiteSpace=wrap;html=1;" parent="dNxyNK7c78bLwvsdeMH5-11" vertex="1">
          <mxGeometry x="400" y="50" width="120" height="60" as="geometry" />
        </mxCell>
        <mxCell id="S6ZYbawEhijRoYvT3STJ-6" value="Data" style="rounded=1;whiteSpace=wrap;html=1;" parent="dNxyNK7c78bLwvsdeMH5-11" vertex="1">
          <mxGeometry x="520" y="50" width="120" height="60" as="geometry" />
        </mxCell>
        <mxCell id="S6ZYbawEhijRoYvT3STJ-8" value="Web" style="rounded=1;whiteSpace=wrap;html=1;" parent="dNxyNK7c78bLwvsdeMH5-11" vertex="1">
          <mxGeometry x="280" y="50" width="120" height="60" as="geometry" />
        </mxCell>
        <mxCell id="S6ZYbawEhijRoYvT3STJ-10" value="Model" style="rounded=1;whiteSpace=wrap;html=1;" parent="dNxyNK7c78bLwvsdeMH5-11" vertex="1">
          <mxGeometry x="340" y="150" width="120" height="60" as="geometry" />
        </mxCell>
        <mxCell id="S6ZYbawEhijRoYvT3STJ-11" value="Database" style="rounded=1;whiteSpace=wrap;html=1;" parent="dNxyNK7c78bLwvsdeMH5-11" vertex="1">
          <mxGeometry x="520" y="150" width="120" height="60" as="geometry" />
        </mxCell>
        <mxCell id="S6ZYbawEhijRoYvT3STJ-12" value="" style="endArrow=block;startArrow=block;html=1;rounded=0;exitX=1;exitY=0.5;exitDx=0;exitDy=0;entryX=0;entryY=0.5;entryDx=0;entryDy=0;strokeWidth=3;endFill=1;startFill=1;" parent="dNxyNK7c78bLwvsdeMH5-11" source="S6ZYbawEhijRoYvT3STJ-4" target="S6ZYbawEhijRoYvT3STJ-8" edge="1">
          <mxGeometry width="50" height="50" relative="1" as="geometry">
            <mxPoint x="390" y="200" as="sourcePoint" />
            <mxPoint x="440" y="150" as="targetPoint" />
          </mxGeometry>
        </mxCell>
        <mxCell id="S6ZYbawEhijRoYvT3STJ-14" value="" style="endArrow=block;startArrow=none;html=1;rounded=0;strokeWidth=3;endFill=1;startFill=0;" parent="dNxyNK7c78bLwvsdeMH5-11" edge="1">
          <mxGeometry width="50" height="50" relative="1" as="geometry">
            <mxPoint x="413" y="70" as="sourcePoint" />
            <mxPoint x="383" y="70" as="targetPoint" />
          </mxGeometry>
        </mxCell>
        <mxCell id="S6ZYbawEhijRoYvT3STJ-15" value="" style="endArrow=block;startArrow=none;html=1;rounded=0;strokeWidth=3;endFill=1;startFill=0;" parent="dNxyNK7c78bLwvsdeMH5-11" edge="1">
          <mxGeometry width="50" height="50" relative="1" as="geometry">
            <mxPoint x="387" y="90" as="sourcePoint" />
            <mxPoint x="417" y="90" as="targetPoint" />
          </mxGeometry>
        </mxCell>
        <mxCell id="VnPoHlpbtceTUFmNNz2N-1" value="" style="endArrow=block;startArrow=none;html=1;rounded=0;strokeWidth=3;endFill=1;startFill=0;" edge="1" parent="dNxyNK7c78bLwvsdeMH5-11">
          <mxGeometry width="50" height="50" relative="1" as="geometry">
            <mxPoint x="507" y="90" as="sourcePoint" />
            <mxPoint x="537" y="90" as="targetPoint" />
          </mxGeometry>
        </mxCell>
        <mxCell id="VnPoHlpbtceTUFmNNz2N-2" value="" style="endArrow=block;startArrow=none;html=1;rounded=0;strokeWidth=3;endFill=1;startFill=0;" edge="1" parent="dNxyNK7c78bLwvsdeMH5-11">
          <mxGeometry width="50" height="50" relative="1" as="geometry">
            <mxPoint x="532" y="70" as="sourcePoint" />
            <mxPoint x="502" y="70" as="targetPoint" />
          </mxGeometry>
        </mxCell>
        <mxCell id="VnPoHlpbtceTUFmNNz2N-6" value="" style="endArrow=block;startArrow=none;html=1;rounded=0;strokeWidth=3;endFill=1;startFill=0;" edge="1" parent="dNxyNK7c78bLwvsdeMH5-11">
          <mxGeometry width="50" height="50" relative="1" as="geometry">
            <mxPoint x="570" y="110" as="sourcePoint" />
            <mxPoint x="570" y="150" as="targetPoint" />
          </mxGeometry>
        </mxCell>
        <mxCell id="VnPoHlpbtceTUFmNNz2N-7" value="" style="endArrow=block;startArrow=none;html=1;rounded=0;strokeWidth=3;endFill=1;startFill=0;" edge="1" parent="dNxyNK7c78bLwvsdeMH5-11">
          <mxGeometry width="50" height="50" relative="1" as="geometry">
            <mxPoint x="590" y="150" as="sourcePoint" />
            <mxPoint x="590" y="110" as="targetPoint" />
          </mxGeometry>
        </mxCell>
        <mxCell id="VnPoHlpbtceTUFmNNz2N-8" value="" style="endArrow=none;startArrow=none;html=1;rounded=0;strokeWidth=3;endFill=0;startFill=0;exitX=0.167;exitY=1;exitDx=0;exitDy=0;exitPerimeter=0;" edge="1" parent="dNxyNK7c78bLwvsdeMH5-11" source="S6ZYbawEhijRoYvT3STJ-6">
          <mxGeometry width="50" height="50" relative="1" as="geometry">
            <mxPoint x="440" y="130" as="sourcePoint" />
            <mxPoint x="440" y="150" as="targetPoint" />
          </mxGeometry>
        </mxCell>
        <mxCell id="VnPoHlpbtceTUFmNNz2N-25" value="" style="endArrow=none;startArrow=none;html=1;rounded=0;strokeWidth=3;endFill=0;startFill=0;" edge="1" parent="dNxyNK7c78bLwvsdeMH5-11">
          <mxGeometry width="50" height="50" relative="1" as="geometry">
            <mxPoint x="420" y="110" as="sourcePoint" />
            <mxPoint x="420" y="130" as="targetPoint" />
            <Array as="points">
              <mxPoint x="420" y="130" />
              <mxPoint x="420" y="150" />
            </Array>
          </mxGeometry>
        </mxCell>
        <mxCell id="VnPoHlpbtceTUFmNNz2N-26" value="" style="endArrow=none;startArrow=none;html=1;rounded=0;strokeWidth=3;endFill=0;startFill=0;" edge="1" parent="dNxyNK7c78bLwvsdeMH5-11">
          <mxGeometry width="50" height="50" relative="1" as="geometry">
            <mxPoint x="380" y="110" as="sourcePoint" />
            <mxPoint x="380" y="130" as="targetPoint" />
            <Array as="points">
              <mxPoint x="380" y="130" />
              <mxPoint x="380" y="150" />
            </Array>
          </mxGeometry>
        </mxCell>
      </root>
    </mxGraphModel>
  </diagram>
</mxfile>
